<svg xmlns="http://www.w3.org/2000/svg" xmlns:xlink="http://www.w3.org/1999/xlink" width="169px" height="50px" viewBox="0 0 169 50" version="1.1">
    <!-- Generator: Sketch 56.2 (81672) - https://sketch.com -->
    <title>Rectangle</title>
    <desc>Created with Sketch.</desc>
    <defs>
        <linearGradient x1="60.8604819%" y1="4.84%" x2="26.469639%" y2="71.968%" id="linearGradient-1">
            <stop stop-color="#00A0FF" offset="0%"/>
            <stop stop-color="#00A1FF" offset="0.7%"/>
            <stop stop-color="#00BEFF" offset="26%"/>
            <stop stop-color="#00D2FF" offset="51.2%"/>
            <stop stop-color="#00DFFF" offset="76%"/>
            <stop stop-color="#00E3FF" offset="100%"/>
        </linearGradient>
        <linearGradient x1="107.724138%" y1="49.4235294%" x2="-130.669951%" y2="49.4235294%" id="linearGradient-2">
            <stop stop-color="#FFE000" offset="0%"/>
            <stop stop-color="#FFBD00" offset="40.9%"/>
            <stop stop-color="#FFA500" offset="77.5%"/>
            <stop stop-color="#FF9C00" offset="100%"/>
        </linearGradient>
        <linearGradient x1="86.3892216%" y1="31.3162202%" x2="-49.8862275%" y2="133.81805%" id="linearGradient-3">
            <stop stop-color="#FF3A44" offset="0%"/>
            <stop stop-color="#C31162" offset="100%"/>
        </linearGradient>
        <linearGradient x1="-18.5808383%" y1="-10.6785089%" x2="42.2754491%" y2="35.3089904%" id="linearGradient-4">
            <stop stop-color="#32A071" offset="0%"/>
            <stop stop-color="#2DA771" offset="6.9%"/>
            <stop stop-color="#15CF74" offset="47.6%"/>
            <stop stop-color="#06E775" offset="80.1%"/>
            <stop stop-color="#00F076" offset="100%"/>
        </linearGradient>
    </defs>
    <g id="Design" stroke="none" stroke-width="1" fill="none" fill-rule="evenodd">
        <g id="Main_white" transform="translate(-926.000000, -4423.000000)">
            <g id="google-play-badge-(1)" transform="translate(926.000000, 4423.000000)">
                <rect id="Rectangle" fill="#000000" x="0" y="0" width="168.666667" height="50" rx="8"/>
                <path d="M58.8591065,12.9247312 C58.8591065,13.9569892 58.6082474,14.8602151 57.9810997,15.5053763 C57.2285223,16.2795699 56.3505155,16.6666667 55.2216495,16.6666667 C54.0927835,16.6666667 53.2147766,16.2795699 52.4621993,15.5053763 C51.709622,14.7311828 51.3333333,13.827957 51.3333333,12.6666667 C51.3333333,11.5053763 51.709622,10.6021505 52.4621993,9.82795699 C53.2147766,9.05376344 54.0927835,8.66666667 55.2216495,8.66666667 C55.7233677,8.66666667 56.2250859,8.79569892 56.7268041,9.05376344 C57.2285223,9.31182796 57.604811,9.56989247 57.8556701,9.95698925 L57.2285223,10.6021505 C56.7268041,9.95698925 56.0996564,9.69892473 55.2216495,9.69892473 C54.4690722,9.69892473 53.7164948,9.95698925 53.2147766,10.6021505 C52.5876289,11.1182796 52.3367698,11.8924731 52.3367698,12.7956989 C52.3367698,13.6989247 52.5876289,14.4731183 53.2147766,14.9892473 C53.8419244,15.5053763 54.4690722,15.8924731 55.2216495,15.8924731 C56.0996564,15.8924731 56.7268041,15.6344086 57.3539519,14.9892473 C57.7302405,14.6021505 57.9810997,14.0860215 57.9810997,13.4408602 L55.2216495,13.4408602 L55.2216495,12.4086022 L58.8591065,12.4086022 L58.8591065,12.9247312 L58.8591065,12.9247312 Z M64.628866,9.69892473 L61.242268,9.69892473 L61.242268,12.1505376 L64.3780069,12.1505376 L64.3780069,13.0537634 L61.242268,13.0537634 L61.242268,15.5053763 L64.628866,15.5053763 L64.628866,16.5376344 L60.2388316,16.5376344 L60.2388316,8.79569892 L64.628866,8.79569892 L64.628866,9.69892473 Z M68.7680412,16.5376344 L67.7646048,16.5376344 L67.7646048,9.69892473 L65.6323024,9.69892473 L65.6323024,8.79569892 L70.9003436,8.79569892 L70.9003436,9.69892473 L68.7680412,9.69892473 L68.7680412,16.5376344 Z M74.5378007,16.5376344 L74.5378007,8.79569892 L75.5412371,8.79569892 L75.5412371,16.5376344 L74.5378007,16.5376344 Z M79.8058419,16.5376344 L78.8024055,16.5376344 L78.8024055,9.69892473 L76.6701031,9.69892473 L76.6701031,8.79569892 L81.8127148,8.79569892 L81.8127148,9.69892473 L79.6804124,9.69892473 L79.6804124,16.5376344 L79.8058419,16.5376344 Z M91.7216495,15.5053763 C90.9690722,16.2795699 90.0910653,16.6666667 88.9621993,16.6666667 C87.8333333,16.6666667 86.9553265,16.2795699 86.2027491,15.5053763 C85.4501718,14.7311828 85.0738832,13.827957 85.0738832,12.6666667 C85.0738832,11.5053763 85.4501718,10.6021505 86.2027491,9.82795699 C86.9553265,9.05376344 87.8333333,8.66666667 88.9621993,8.66666667 C90.0910653,8.66666667 90.9690722,9.05376344 91.7216495,9.82795699 C92.4742268,10.6021505 92.8505155,11.5053763 92.8505155,12.6666667 C92.8505155,13.827957 92.4742268,14.7311828 91.7216495,15.5053763 Z M86.9553265,14.8602151 C87.4570447,15.3763441 88.209622,15.7634409 88.9621993,15.7634409 C89.7147766,15.7634409 90.467354,15.5053763 90.9690722,14.8602151 C91.4707904,14.344086 91.847079,13.5698925 91.847079,12.6666667 C91.847079,11.7634409 91.5962199,10.9892473 90.9690722,10.4731183 C90.467354,9.95698925 89.7147766,9.56989247 88.9621993,9.56989247 C88.209622,9.56989247 87.4570447,9.82795699 86.9553265,10.4731183 C86.4536082,10.9892473 86.0773196,11.7634409 86.0773196,12.6666667 C86.0773196,13.5698925 86.3281787,14.344086 86.9553265,14.8602151 Z M94.2302405,16.5376344 L94.2302405,8.79569892 L95.3591065,8.79569892 L98.9965636,14.8602151 L98.9965636,8.79569892 L100,8.79569892 L100,16.5376344 L98.9965636,16.5376344 L95.1082474,10.2150538 L95.1082474,16.5376344 L94.2302405,16.5376344 L94.2302405,16.5376344 Z" id="Shape" fill="#FFFFFF" fill-rule="nonzero"/>
                <path d="M85.1631206,27.2662722 C82.1560284,27.2662722 79.7754137,29.5384615 79.7754137,32.6942801 C79.7754137,35.7238659 82.1560284,38.122288 85.1631206,38.122288 C88.1702128,38.122288 90.5508274,35.8500986 90.5508274,32.6942801 C90.5508274,29.4122288 88.1702128,27.2662722 85.1631206,27.2662722 Z M85.1631206,35.8500986 C83.534279,35.8500986 82.1560284,34.4615385 82.1560284,32.5680473 C82.1560284,30.6745562 83.534279,29.2859961 85.1631206,29.2859961 C86.7919622,29.2859961 88.1702128,30.5483235 88.1702128,32.5680473 C88.1702128,34.4615385 86.7919622,35.8500986 85.1631206,35.8500986 Z M73.5106383,27.2662722 C70.5035461,27.2662722 68.1229314,29.5384615 68.1229314,32.6942801 C68.1229314,35.7238659 70.5035461,38.122288 73.5106383,38.122288 C76.5177305,38.122288 78.8983452,35.8500986 78.8983452,32.6942801 C78.8983452,29.4122288 76.5177305,27.2662722 73.5106383,27.2662722 Z M73.5106383,35.8500986 C71.8817967,35.8500986 70.5035461,34.4615385 70.5035461,32.5680473 C70.5035461,30.6745562 71.8817967,29.2859961 73.5106383,29.2859961 C75.1394799,29.2859961 76.5177305,30.5483235 76.5177305,32.5680473 C76.5177305,34.4615385 75.1394799,35.8500986 73.5106383,35.8500986 Z M59.6028369,28.9072978 L59.6028369,31.1794872 L64.9905437,31.1794872 C64.8652482,32.4418146 64.3640662,33.4516765 63.7375887,34.0828402 C62.9858156,34.8402367 61.7328605,35.7238659 59.6028369,35.7238659 C56.2198582,35.7238659 53.713948,33.0729783 53.713948,29.6646943 C53.713948,26.2564103 56.3451537,23.6055227 59.6028369,23.6055227 C61.356974,23.6055227 62.7352246,24.3629191 63.7375887,25.2465483 L65.3664303,23.6055227 C63.9881797,22.3431953 62.2340426,21.3333333 59.7281324,21.3333333 C55.2174941,21.3333333 51.3333333,25.1203156 51.3333333,29.6646943 C51.3333333,34.209073 55.2174941,37.9960552 59.7281324,37.9960552 C62.2340426,37.9960552 63.9881797,37.2386588 65.4917258,35.5976331 C66.9952719,34.0828402 67.4964539,31.9368836 67.4964539,30.295858 C67.4964539,29.790927 67.4964539,29.2859961 67.3711584,28.9072978 L59.6028369,28.9072978 L59.6028369,28.9072978 Z M116.486998,30.6745562 C115.985816,29.4122288 114.732861,27.2662722 111.976359,27.2662722 C109.219858,27.2662722 106.964539,29.4122288 106.964539,32.6942801 C106.964539,35.7238659 109.219858,38.122288 112.22695,38.122288 C114.607565,38.122288 116.111111,36.6074951 116.612293,35.7238659 L114.858156,34.4615385 C114.231678,35.3451677 113.479905,35.9763314 112.22695,35.9763314 C110.973995,35.9763314 110.222222,35.4714004 109.595745,34.3353057 L116.737589,31.3057199 L116.486998,30.6745562 L116.486998,30.6745562 Z M109.219858,32.4418146 C109.219858,30.4220907 110.8487,29.2859961 111.976359,29.2859961 C112.853428,29.2859961 113.730496,29.790927 113.981087,30.4220907 L109.219858,32.4418146 Z M103.330969,37.617357 L105.711584,37.617357 L105.711584,21.8382643 L103.330969,21.8382643 L103.330969,37.617357 Z M99.572104,28.4023669 C98.9456265,27.7712032 97.9432624,27.1400394 96.6903073,27.1400394 C94.0591017,27.1400394 91.5531915,29.5384615 91.5531915,32.5680473 C91.5531915,35.5976331 93.9338061,37.8698225 96.6903073,37.8698225 C97.9432624,37.8698225 98.9456265,37.2386588 99.4468085,36.6074951 L99.572104,36.6074951 L99.572104,37.3648915 C99.572104,39.3846154 98.4444444,40.5207101 96.6903073,40.5207101 C95.3120567,40.5207101 94.3096927,39.5108481 94.0591017,38.6272189 L92.0543735,39.5108481 C92.6808511,40.8994083 94.1843972,42.6666667 96.8156028,42.6666667 C99.572104,42.6666667 101.827423,41.025641 101.827423,37.112426 L101.827423,27.5187377 L99.572104,27.5187377 L99.572104,28.4023669 L99.572104,28.4023669 Z M96.8156028,35.8500986 C95.1867612,35.8500986 93.8085106,34.4615385 93.8085106,32.5680473 C93.8085106,30.6745562 95.1867612,29.2859961 96.8156028,29.2859961 C98.4444444,29.2859961 99.6973995,30.6745562 99.6973995,32.5680473 C99.6973995,34.4615385 98.4444444,35.8500986 96.8156028,35.8500986 Z M127.387707,21.8382643 L121.749409,21.8382643 L121.749409,37.617357 L124.130024,37.617357 L124.130024,31.6844181 L127.387707,31.6844181 C130.018913,31.6844181 132.524823,29.790927 132.524823,26.7613412 C132.524823,23.7317554 130.018913,21.8382643 127.387707,21.8382643 L127.387707,21.8382643 Z M127.513002,29.4122288 L124.130024,29.4122288 L124.130024,23.9842209 L127.513002,23.9842209 C129.267139,23.9842209 130.269504,25.4990138 130.269504,26.6351085 C130.144208,28.0236686 129.141844,29.4122288 127.513002,29.4122288 Z M141.921986,27.1400394 C140.167849,27.1400394 138.413712,27.8974359 137.787234,29.5384615 L139.917258,30.4220907 C140.41844,29.5384615 141.170213,29.2859961 142.047281,29.2859961 C143.300236,29.2859961 144.427896,30.0433925 144.553191,31.3057199 L144.553191,31.4319527 C144.177305,31.1794872 143.174941,30.800789 142.172577,30.800789 C139.917258,30.800789 137.661939,32.0631164 137.661939,34.3353057 C137.661939,36.4812623 139.541371,37.8698225 141.546099,37.8698225 C143.174941,37.8698225 143.926714,37.112426 144.553191,36.3550296 L144.678487,36.3550296 L144.678487,37.617357 L146.933806,37.617357 L146.933806,31.5581854 C146.683215,28.7810651 144.553191,27.1400394 141.921986,27.1400394 L141.921986,27.1400394 Z M141.671395,35.8500986 C140.919622,35.8500986 139.791962,35.4714004 139.791962,34.4615385 C139.791962,33.199211 141.170213,32.8205128 142.297872,32.8205128 C143.300236,32.8205128 143.801418,33.0729783 144.427896,33.3254438 C144.177305,34.8402367 142.92435,35.8500986 141.671395,35.8500986 L141.671395,35.8500986 Z M154.827423,27.5187377 L152.196217,34.3353057 L152.070922,34.3353057 L149.314421,27.5187377 L146.808511,27.5187377 L150.943262,37.112426 L148.562648,42.4142012 L150.943262,42.4142012 L157.333333,27.5187377 L154.827423,27.5187377 L154.827423,27.5187377 Z M133.777778,37.617357 L136.158392,37.617357 L136.158392,21.8382643 L133.777778,21.8382643 L133.777778,37.617357 Z" id="Shape" fill="#FFFFFF" fill-rule="nonzero"/>
                <g id="Group" transform="translate(13.000000, 8.000000)">
                    <path d="M1.48307734,0.818249569 L28.5622112,15.7584613 C28.8322924,15.9074717 29,16.1915393 29,16.5 C29,16.8084607 28.8322924,17.0925283 28.5622112,17.2415387 L1.48307734,32.1817504 C0.999509141,32.4485467 0.391218565,32.2728183 0.124422316,31.7892501 C0.0428059415,31.6413204 2.01909197e-15,31.4751237 0,31.3061727 L0,1.69382725 C-2.66460887e-16,1.1415425 0.44771525,0.693827253 1,0.693827253 C1.16895095,0.693827253 1.33514766,0.736633194 1.48307734,0.818249569 Z" id="Rectangle" fill="#FFFFFF"/>
                    <path d="M0.492307692,1.66666667 C0.123076923,2.03866667 0,2.65866667 0,3.40266667 L0,30.8066667 C0,31.5506667 0.246153846,32.1706667 0.615384615,32.5426667 L0.738461538,32.6666667 L16,17.2906667 L16,17.0426667 L0.492307692,1.66666667 Z" id="Path" fill="url(#linearGradient-1)" fill-rule="nonzero"/>
                    <path d="M21.2512315,21.6666667 L16,16.8431373 L16,16.4901961 L21.2512315,11.6666667 L21.3793103,11.7843137 L27.6551724,15.0784314 C29.4482759,16.0196078 29.4482759,17.5490196 27.6551724,18.4901961 L21.2512315,21.6666667 L21.2512315,21.6666667 Z" id="Path" fill="url(#linearGradient-2)" fill-rule="nonzero"/>
                    <path d="M21,21.8805994 L15.7185629,16.6666667 L0,32.1843235 C0.628742515,32.8050298 1.50898204,32.8050298 2.64071856,32.3084647 L21,21.8805994" id="Path" fill="url(#linearGradient-3)" fill-rule="nonzero"/>
                    <path d="M2.64071856,1.0766533 C1.50898204,0.453052762 0.628742515,0.577772869 0,1.2013734 L15.7185629,16.6666667 L21,11.4284222 L2.64071856,1.0766533 Z" id="Path" fill="url(#linearGradient-4)" fill-rule="nonzero"/>
                    <path d="M21,21.6666667 L2.65662651,31.9887626 C1.64457831,32.6181587 0.759036145,32.4922795 0.126506024,31.9887626 L0,32.1146418 L0.126506024,32.240521 C0.759036145,32.7440379 1.64457831,32.8699171 2.65662651,32.240521 L21,21.6666667 Z" id="Path" fill="#000000" fill-rule="nonzero" opacity="0.2"/>
                    <path d="M0.486956522,31.5456989 C0.12173913,31.1827957 -1.11022302e-16,30.577957 -1.11022302e-16,29.8521505 L-1.11022302e-16,29.9731183 C-1.11022302e-16,30.6989247 0.243478261,31.3037634 0.608695652,31.6666667 L0.608695652,31.5456989 L0.486956522,31.5456989 Z M26.7826087,18.2392473 L20.6956522,21.6263441 L20.8173913,21.7473118 L26.7826087,18.3602151 C27.6347826,17.8763441 28,17.2715054 28,16.6666667 C28,17.2715054 27.5130435,17.7553763 26.7826087,18.2392473 L26.7826087,18.2392473 Z" id="Shape" fill="#000000" fill-rule="nonzero" opacity="0.12"/>
                    <path d="M3.04347826,1.23035277 L26.7826087,15.0483434 C27.5130435,15.546289 28,16.0442347 28,16.6666667 C28,16.0442347 27.6347826,15.4218026 26.7826087,14.923857 L3.04347826,1.10586636 C1.33913043,0.109975144 0,0.856893558 0,2.848676 L0,2.9731624 C0,1.10586636 1.33913043,0.234461546 3.04347826,1.23035277 Z" id="Path" fill="#FFFFFF" fill-rule="nonzero" opacity="0.25"/>
                </g>
            </g>
        </g>
    </g>
</svg>