<svg xmlns="http://www.w3.org/2000/svg" width="94" height="94" viewBox="0 0 94 94">
  <metadata><?xpacket begin="﻿" id="W5M0MpCehiHzreSzNTczkc9d"?>
<x:xmpmeta xmlns:x="adobe:ns:meta/" x:xmptk="Adobe XMP Core 5.6-c138 79.159824, 2016/09/14-01:09:01        ">
   <rdf:RDF xmlns:rdf="http://www.w3.org/1999/02/22-rdf-syntax-ns#">
      <rdf:Description rdf:about=""/>
   </rdf:RDF>
</x:xmpmeta>
                                                                                                    
                                                                                                    
                                                                                                    
                                                                                                    
                                                                                                    
                                                                                                    
                                                                                                    
                                                                                                    
                                                                                                    
                                                                                                    
                                                                                                    
                                                                                                    
                                                                                                    
                                                                                                    
                                                                                                    
                                                                                                    
                                                                                                    
                                                                                                    
                                                                                                    
                                                                                                    
                           
<?xpacket end="w"?></metadata>
<defs>
    <style>
      .cls-1 {
        fill: #FFE17F;
      }

      .cls-1, .cls-2 {
        fill-rule: evenodd;
      }

      .cls-2 {
        fill: #000;
      }
    </style>
  </defs>
  <path id="Polygon_1" data-name="Polygon 1" class="cls-1" d="M74.471,81.275q-8.859-2.048-11.515,6.648t-9.3,2.493q-6.648-6.2-13.3,0t-9.3-2.493q-2.656-8.7-11.515-6.648t-6.811-6.811Q14.772,65.6,6.076,62.949t-2.493-9.3q6.2-6.648,0-13.3t2.493-9.3q8.7-2.656,6.648-11.515t6.811-6.811q8.859,2.048,11.515-6.648t9.3-2.493q6.648,6.2,13.3,0t9.3,2.493q2.656,8.7,11.515,6.648t6.811,6.811q-2.048,8.859,6.648,11.515t2.493,9.3q-6.2,6.648,0,13.3t-2.493,9.3q-8.7,2.656-6.648,11.515T74.471,81.275Z"/>
  <path id="Presale" class="cls-2" d="M13.386,53.984h2.157V51.043h1.639c2.2,0,3.964-1.177,3.964-3.446,0-2.031-1.415-3.418-3.754-3.418H13.386v9.805Zm2.157-4.861v-3H17.21a1.49,1.49,0,0,1,1.751,1.485,1.523,1.523,0,0,1-1.709,1.513H15.543Zm7.195,4.861h2.157V50.847h1.667l2.129,3.138h2.521l-2.4-3.5a3.045,3.045,0,0,0,2.1-3.04,3.1,3.1,0,0,0-.84-2.269,3.907,3.907,0,0,0-2.858-.995H22.738v9.805Zm2.157-5.043V46.126h2.143a1.429,1.429,0,1,1,.042,2.816H24.895Zm7.965,5.043h7.466V52.065H35V50.006h4.623V48.087H35V46.1h5.253V44.179h-7.4v9.805Zm12.868,0.14c2.115,0,3.6-1.093,3.6-3.04,0-1.737-1.121-2.451-3.11-2.97-1.695-.434-2.115-0.644-2.115-1.289a1.035,1.035,0,0,1,1.261-.883,4.6,4.6,0,0,1,2.549.967l1.121-1.625a5.676,5.676,0,0,0-3.642-1.247c-2,0-3.432,1.177-3.432,2.956,0,1.975,1.275,2.521,3.25,3.026,1.639,0.42,1.975.7,1.975,1.247,0,0.6-.532.953-1.415,0.953a4.5,4.5,0,0,1-2.928-1.191l-1.275,1.527A6.239,6.239,0,0,0,45.728,54.125Zm4.422-.14h2.2l0.9-2.2h4.146l0.9,2.2h2.255l-4.2-9.875H54.351Zm3.866-4.1,1.3-3.18,1.3,3.18H54.015Zm8.034,4.1H69.1V52.023H64.207V44.179H62.05v9.805Zm8.666,0h7.466V52.065H72.859V50.006h4.622V48.087H72.859V46.1h5.253V44.179h-7.4v9.805Z"/>
</svg>
